<?xml version="1.0" standalone="no"?>
<!DOCTYPE svg PUBLIC "-//W3C//DTD SVG 20010904//EN"
 "http://www.w3.org/TR/2001/REC-SVG-20010904/DTD/svg10.dtd">
<svg version="1.0" xmlns="http://www.w3.org/2000/svg"
 width="840.000000pt" height="840.000000pt" viewBox="0 0 840.000000 840.000000"
 preserveAspectRatio="xMidYMid meet">
<metadata>
Created by potrace 1.14, written by Peter Selinger 2001-2017
</metadata>
<g transform="translate(0.000000,840.000000) scale(0.100000,-0.100000)"
fill="#000000" stroke="none">
<path d="M3396 7542 c1 -460 5 -850 9 -867 13 -59 71 -125 133 -153 33 -14
114 -16 667 -17 347 0 637 2 645 6 80 36 105 56 141 114 l24 40 3 860 c1 482
-1 855 -6 850 -7 -8 -182 -316 -298 -523 -38 -68 -50 -88 -79 -137 -16 -27
-30 -52 -30 -55 0 -4 -60 -108 -86 -150 -5 -8 -14 -25 -21 -37 -13 -26 -28
-30 -28 -8 0 23 -1 29 -11 46 -4 9 -10 27 -13 40 -4 22 -25 96 -98 344 -16 55
-31 107 -33 115 -1 8 -17 65 -34 125 -17 61 -38 135 -47 165 -25 88 -25 88
-35 62 -5 -13 -11 -33 -13 -45 -2 -12 -16 -62 -31 -112 -15 -49 -28 -94 -29
-100 -5 -18 -26 -95 -93 -330 -36 -126 -67 -237 -69 -245 -23 -100 -25 -99
-103 42 -14 26 -63 112 -107 190 -45 79 -91 160 -103 181 -12 21 -40 71 -63
110 -51 89 -97 172 -145 260 -21 37 -40 67 -43 67 -3 0 -4 -377 -4 -838z"/>
<path d="M3308 5825 c-1 -1 -42 -5 -89 -9 -47 -4 -97 -9 -110 -11 -13 -3 -36
-7 -50 -10 -42 -8 -152 -51 -215 -85 -157 -84 -296 -226 -374 -380 -34 -68
-117 -136 -229 -190 -66 -32 -193 -64 -221 -57 -11 3 -20 2 -20 -2 0 -8 -57
-6 -135 3 -53 7 -128 27 -140 37 -5 5 -15 9 -21 9 -7 0 -39 15 -71 34 -51 30
-70 44 -120 86 -21 17 -23 12 -19 -62 7 -111 16 -193 32 -273 4 -22 8 -44 9
-50 12 -118 119 -416 213 -595 66 -125 179 -303 225 -354 15 -18 20 -29 19
-46 -1 -22 -13 -84 -18 -92 -3 -5 -7 -19 -9 -31 -1 -12 -8 -42 -14 -67 -23
-88 -61 -247 -68 -280 -9 -45 -11 -55 -13 -57 -3 -4 -4 -8 -14 -58 -4 -22 -11
-53 -16 -70 -7 -23 -33 -130 -46 -187 -1 -5 -2 -9 -4 -10 -1 -2 -3 -12 -5 -23
-4 -25 -8 -40 -44 -189 -17 -67 -32 -132 -35 -146 -9 -46 -15 -71 -21 -90 -3
-10 -8 -28 -10 -39 -3 -12 -7 -31 -10 -43 -8 -39 -57 -241 -86 -357 -16 -63
-26 -118 -23 -122 3 -5 1 -9 -4 -9 -5 0 -9 -6 -10 -12 -1 -18 -11 -66 -24
-113 -6 -22 -12 -47 -13 -55 -2 -8 -4 -15 -5 -15 -1 0 -3 -9 -5 -21 -4 -16
-32 -137 -51 -217 -2 -9 -6 -25 -8 -35 -70 -291 -98 -410 -102 -424 -2 -10 -6
-26 -8 -35 -2 -10 -14 -58 -26 -108 -12 -49 -23 -97 -25 -105 -12 -58 -87
-364 -92 -377 -5 -14 2 -12 38 9 24 14 71 40 104 59 33 18 62 37 63 41 2 4 12
8 22 8 10 0 20 4 22 8 4 10 146 92 159 92 5 0 9 5 9 10 0 6 4 10 8 10 5 0 76
39 158 86 82 48 169 98 194 112 25 14 59 34 75 44 17 10 42 24 58 30 15 7 27
16 27 20 0 4 4 8 9 8 5 0 47 22 93 49 84 50 502 291 571 330 73 42 103 59 180
105 43 25 80 46 82 46 1 0 44 25 94 55 51 30 94 55 97 55 2 0 21 11 42 23 20
13 57 35 82 49 75 42 305 175 341 198 19 11 41 23 51 26 10 4 19 23 24 52 4
26 9 54 11 62 1 8 7 38 12 65 5 28 12 62 15 78 3 15 10 55 16 90 6 34 19 107
30 162 10 55 21 116 24 135 3 19 8 46 11 60 7 34 13 68 21 115 3 22 8 43 9 46
2 3 7 28 11 55 3 27 8 52 10 55 2 4 6 31 10 60 3 30 8 57 11 62 2 4 6 17 8 30
2 12 7 40 10 62 4 22 8 49 10 60 2 11 6 34 9 50 17 86 29 152 31 170 11 77 37
170 55 196 52 72 154 89 233 39 54 -34 63 -52 107 -200 17 -58 40 -133 51
-167 10 -34 20 -70 22 -80 1 -10 5 -22 9 -28 3 -5 13 -35 21 -65 16 -59 93
-316 108 -365 6 -16 12 -37 14 -45 3 -16 42 -147 70 -239 9 -30 18 -62 20 -70
2 -9 13 -45 24 -81 l21 -64 -90 -160 c-50 -87 -90 -163 -90 -167 0 -5 -5 -9
-11 -9 -5 0 -8 -4 -4 -9 3 -5 0 -15 -7 -23 -7 -7 -22 -31 -34 -53 -12 -22 -33
-61 -47 -87 -15 -27 -38 -68 -52 -93 -13 -25 -45 -81 -70 -125 -25 -43 -45
-84 -45 -89 0 -5 -4 -11 -9 -13 -10 -4 -62 -100 -57 -106 4 -4 185 95 200 109
6 5 18 9 28 9 10 0 18 4 18 9 0 5 19 18 43 29 23 12 75 39 115 62 39 22 72 38
72 36 0 -4 -82 -152 -163 -296 -11 -19 -30 -53 -42 -75 -26 -49 -91 -166 -122
-220 -12 -22 -31 -56 -41 -75 -42 -78 -86 -156 -99 -175 -30 -45 -14 -39 179
71 43 24 82 44 88 44 5 0 10 4 10 9 0 5 9 13 21 16 11 4 57 28 102 54 81 47
117 64 117 57 0 -5 -73 -136 -98 -176 -9 -14 -15 -27 -15 -30 1 -3 -4 -12 -11
-20 -6 -8 -21 -33 -33 -55 -20 -37 -30 -56 -88 -160 -42 -74 -178 -320 -200
-360 -73 -133 -85 -156 -85 -160 0 -6 43 17 50 27 3 4 21 14 40 23 19 9 53 27
75 40 22 13 60 34 85 46 25 13 47 25 50 28 3 3 23 16 45 28 22 11 58 31 80 43
22 13 58 33 80 45 22 12 65 36 95 54 30 17 82 45 115 62 33 17 67 38 77 46 9
8 24 16 33 17 9 1 24 9 34 17 16 13 44 29 146 82 22 11 43 26 47 31 4 6 8 7 8
2 0 -5 8 -3 18 5 9 8 42 28 72 44 30 15 57 31 60 35 3 3 22 14 42 23 20 10 92
49 159 87 67 39 126 70 129 70 4 0 13 6 19 14 7 8 24 17 39 21 15 4 29 10 32
14 4 7 91 56 265 151 28 15 66 37 85 49 19 11 46 26 60 32 13 5 27 13 30 17 3
4 23 16 45 27 22 11 98 53 168 92 71 40 132 73 136 73 5 0 14 7 21 15 7 8 21
15 30 15 10 0 20 4 22 8 2 5 32 25 68 44 167 92 326 181 333 187 4 4 -4 46
-19 92 -15 46 -27 89 -29 94 -1 6 -5 17 -8 25 -8 21 -28 89 -31 103 -1 7 -13
44 -25 82 -12 39 -24 77 -26 85 -2 8 -11 35 -19 59 -9 24 -16 49 -16 57 0 7
-5 25 -12 41 -6 15 -12 33 -13 38 -2 6 -18 57 -36 115 -18 58 -34 110 -35 116
-2 12 -53 181 -62 204 -7 19 -6 17 -21 70 -18 65 -34 113 -42 125 -3 6 -10 28
-14 50 -9 44 -9 44 -18 65 -3 8 -20 62 -37 120 -17 58 -34 112 -37 120 -8 18
-7 17 -17 60 -5 19 -13 41 -18 48 -6 6 -8 12 -5 12 3 0 -5 30 -17 68 -13 37
-23 69 -23 72 0 5 -54 182 -78 254 -12 39 -12 40 30 95 227 302 379 636 450
991 23 115 40 360 25 360 -4 0 -14 -7 -21 -16 -7 -9 -38 -33 -69 -53 -232
-154 -522 -151 -755 9 -51 35 -165 150 -165 166 0 7 -3 14 -7 16 -5 2 -25 28
-45 58 -71 105 -224 234 -344 290 -27 12 -56 26 -65 30 -29 14 -184 49 -249
56 -62 7 -1985 16 -1992 9z"/>
</g>
</svg>
